<?xml version="1.0" encoding="UTF-8" standalone="no"?>
<svg xmlns:dc="http://purl.org/dc/elements/1.1/" xmlns:cc="http://creativecommons.org/ns#" xmlns:rdf="http://www.w3.org/1999/02/22-rdf-syntax-ns#" xmlns:svg="http://www.w3.org/2000/svg" xmlns="http://www.w3.org/2000/svg" xmlns:sodipodi="http://sodipodi.sourceforge.net/DTD/sodipodi-0.dtd" xmlns:inkscape="http://www.inkscape.org/namespaces/inkscape" height="512" viewBox="0 0 512 512" width="512" version="1.1" id="svg2" inkscape:version="0.91 r" sodipodi:docname="variety.svg">
  <defs id="defs23" />
  <sodipodi:namedview pagecolor="#ffffff" bordercolor="#666666" borderopacity="1" objecttolerance="10" gridtolerance="10" guidetolerance="10" inkscape:pageopacity="0" inkscape:pageshadow="2" inkscape:window-width="1680" inkscape:window-height="997" id="namedview21" showgrid="false" inkscape:zoom="0.4609375" inkscape:cx="-116.0678" inkscape:cy="238.64407" inkscape:window-x="0" inkscape:window-y="0" inkscape:window-maximized="1" inkscape:current-layer="svg2" />
  <metadata id="metadata132">
    <rdf:RDF>
      <cc:Work rdf:about="">
        <dc:format>image/svg+xml</dc:format>
        <dc:type rdf:resource="http://purl.org/dc/dcmitype/StillImage" />
      </cc:Work>
    </rdf:RDF>
  </metadata>
  <path style="fill:#68af4c;fill-rule:evenodd" inkscape:connector-curvature="0" d="m 506.05,253.05 c 0,135.31521 -109.69598,245 -245,245 -135.31521,0 -244.999999,-109.69598 -244.999999,-245 0,-135.31521 109.695979,-244.999999 244.999999,-244.999999 135.31521,0 245,109.695979 245,244.999999" id="path6" />
  <path id="path66" d="m 156.4188,125.35765 c -19.87444,0 -35.82815,15.77692 -35.82815,35.43876 l 0,116.42473 c 0,19.65849 15.95259,35.43877 35.82815,35.43877 l 173.35591,0 c 1.02271,-0.79333 2.30053,-1.3181 3.70143,-1.3181 1.4009,0 2.5299,0.52477 3.5526,1.3181 l 35.23512,0 c 19.87445,0 35.82816,-15.77692 35.82816,-35.43877 l 0,-116.42473 c 0,-19.65849 -15.95259,-35.43876 -35.82816,-35.43876 l -215.85289,0" inkscape:connector-curvature="0" style="fill:#68af4c;fill-rule:evenodd" />
  <g id="g68" transform="matrix(1.1907152,0,0,1.1907152,-35.798587,-38.709535)" style="fill:#ffffff">
    <path id="path70" d="m 156.72,120 c -27.13,0 -49.41,22.28 -49.41,49.41 l 0,108.28 c 0,27.13 22.28,49.41 49.41,49.41 l 198.56,0 c 27.13,0 49.41,-22.28 49.41,-49.41 l 0,-108.28 C 404.69,142.28 382.41,120 355.28,120 l -198.56,0 m 3.938,24.19 190.69,0 c 15.53,0 27.938,12.309 27.938,27.813 l 0,103.09 c 0,15.504 -12.433,27.938 -27.938,27.938 l -190.69,0 c -15.503,0 -27.938,-12.434 -27.938,-27.938 l 0,-103.09 c 0,-15.504 12.409,-27.813 27.938,-27.813 M 318.158,306 c 5.155,0 9.313,4.157 9.313,9.313 0,5.155 -4.157,9.344 -9.313,9.344 -5.155,0 -9.344,-4.189 -9.344,-9.344 0,-5.155 4.189,-9.313 9.344,-9.313" inkscape:connector-curvature="0" style="color:#000000" />
    <g id="g72" style="fill-rule:evenodd">
      <rect id="rect74" rx="11.08" height="46.169998" width="50.169998" y="340.16" x="229.14" />
      <rect id="rect76" rx="8" height="16" width="160.02" y="376" x="173.8" />
    </g>
  </g>
  <path id="path124" d="m 235.47378,155.37567 c -13.56144,0.68702 -24.3524,11.91773 -24.3524,25.6526 0,14.17909 11.47463,25.694 25.6526,25.694 14.17909,0 25.694,-11.51491 25.694,-25.694 0,-14.17909 -11.51491,-25.6526 -25.694,-25.6526 -0.4431,0 -0.86382,-0.0224 -1.30132,0 z m 73.45779,52.9366 c -4.18816,10e-4 -8.7657,0.66241 -13.82215,2.07338 -14.37154,5.88781 -43.5857,50.60923 -55.37587,40.04429 -36.57896,-49.00469 -61.04885,-0.67808 -67.72887,38.30099 l 196.68561,0 c -18.08191,-36.79268 -25.65483,-80.42649 -59.76208,-80.41418 z" inkscape:connector-curvature="0" style="fill:#ffffff;stroke:#ffffff;stroke-width:2.38332224" />
  <path id="path126" d="m 156.40761,125.36883 c -19.87444,0 -35.80577,15.76574 -35.80577,35.42087 l 0,116.43591 c 0,19.65849 15.94588,36.18622 35.80577,35.42087 l 48.60635,-1.86526 C 276.34242,270.47734 253.8329,204.82969 310.04797,125.36324 Z" inkscape:connector-curvature="0" style="fill:#ffffff;fill-opacity:0.07900002" />
</svg>
